<svg width="900" height="1100" viewBox="0 0 900 1100" fill="none" xmlns="http://www.w3.org/2000/svg">
<rect width="900" height="1100" fill="#EDE2D4"/>
<rect x="36" y="36" width="828" height="1028" rx="24" fill="#F7F0E6"/>
<rect x="72" y="72" width="756" height="560" rx="20" fill="url(#paint0_linear_1_2)"/>
<path d="M164 540V180H238V540" stroke="#FCF9F3" stroke-opacity="0.88" stroke-width="10"/>
<path d="M150 226H512" stroke="#FCF9F3" stroke-opacity="0.88" stroke-width="10" stroke-linecap="round"/>
<path d="M262 262C229.967 262 204 287.967 204 320V540H320V320C320 287.967 294.033 262 262 262Z" fill="#002B2A" fill-opacity="0.76"/>
<path d="M394 218C357.549 218 328 247.549 328 284V540H460V284C460 247.549 430.451 218 394 218Z" fill="#7F1D16" fill-opacity="0.9"/>
<rect x="358" y="304" width="72" height="236" rx="28" fill="#EFDAC7"/>
<rect x="126" y="684" width="648" height="300" rx="20" fill="#F2E8DB"/>
<rect x="164" y="726" width="572" height="18" rx="9" fill="#002B2A" fill-opacity="0.12"/>
<rect x="164" y="774" width="404" height="18" rx="9" fill="#7F1D16" fill-opacity="0.14"/>
<rect x="164" y="842" width="572" height="102" rx="14" fill="#E4D5C6"/>
<defs>
<linearGradient id="paint0_linear_1_2" x1="72" y1="72" x2="828" y2="632" gradientUnits="userSpaceOnUse">
<stop stop-color="#6D6054"/>
<stop offset="0.52" stop-color="#A0907E"/>
<stop offset="1" stop-color="#475958"/>
</linearGradient>
</defs>
</svg>
