<svg width="1200" height="960" viewBox="0 0 1200 960" fill="none" xmlns="http://www.w3.org/2000/svg">
<rect width="1200" height="960" fill="#EAE0D5"/>
<rect x="60" y="60" width="1080" height="840" rx="24" fill="#F6EFE6"/>
<rect x="106" y="106" width="632" height="748" rx="20" fill="url(#paint0_linear_1_2)"/>
<rect x="770" y="106" width="324" height="748" rx="20" fill="#E3D4C4"/>
<rect x="166" y="154" width="512" height="78" rx="14" fill="#FCF9F3" fill-opacity="0.88"/>
<rect x="166" y="264" width="512" height="460" rx="18" fill="#F3E8DC"/>
<rect x="808" y="154" width="248" height="240" rx="18" fill="#FCF9F3"/>
<rect x="808" y="430" width="248" height="294" rx="18" fill="#EFE2D3"/>
<rect x="214" y="308" width="416" height="16" rx="8" fill="#002B2A" fill-opacity="0.12"/>
<rect x="214" y="352" width="356" height="16" rx="8" fill="#7F1D16" fill-opacity="0.14"/>
<rect x="214" y="396" width="396" height="16" rx="8" fill="#002B2A" fill-opacity="0.08"/>
<rect x="214" y="474" width="174" height="206" rx="14" fill="#002B2A" fill-opacity="0.1"/>
<rect x="418" y="474" width="174" height="206" rx="14" fill="#7F1D16" fill-opacity="0.14"/>
<rect x="842" y="186" width="180" height="18" rx="9" fill="#002B2A" fill-opacity="0.12"/>
<rect x="842" y="226" width="126" height="18" rx="9" fill="#7F1D16" fill-opacity="0.16"/>
<rect x="842" y="470" width="180" height="132" rx="14" fill="#FCF9F3"/>
<rect x="842" y="624" width="180" height="66" rx="14" fill="#002B2A" fill-opacity="0.08"/>
<defs>
<linearGradient id="paint0_linear_1_2" x1="106" y1="106" x2="738" y2="854" gradientUnits="userSpaceOnUse">
<stop stop-color="#6F5548"/>
<stop offset="0.52" stop-color="#A58A75"/>
<stop offset="1" stop-color="#425856"/>
</linearGradient>
</defs>
</svg>
