<svg width="1200" height="960" viewBox="0 0 1200 960" fill="none" xmlns="http://www.w3.org/2000/svg">
<rect width="1200" height="960" fill="#EDE2D4"/>
<rect x="54" y="54" width="1092" height="852" rx="24" fill="#F7F0E6"/>
<rect x="108" y="108" width="560" height="744" rx="20" fill="url(#paint0_linear_1_2)"/>
<rect x="708" y="108" width="384" height="744" rx="20" fill="#E0D0BF"/>
<rect x="748" y="164" width="304" height="284" rx="18" fill="#FCF9F3"/>
<rect x="748" y="498" width="304" height="300" rx="18" fill="#F2E8DB"/>
<rect x="780" y="194" width="240" height="16" rx="8" fill="#002B2A" fill-opacity="0.12"/>
<rect x="780" y="232" width="194" height="16" rx="8" fill="#7F1D16" fill-opacity="0.14"/>
<rect x="780" y="530" width="240" height="160" rx="14" fill="#E7D8C8"/>
<rect x="820" y="568" width="160" height="84" rx="10" fill="#002B2A" fill-opacity="0.10"/>
<path d="M210 698V260H284V698" stroke="#FCF9F3" stroke-opacity="0.9" stroke-width="10"/>
<path d="M196 306H510" stroke="#FCF9F3" stroke-opacity="0.9" stroke-width="10" stroke-linecap="round"/>
<path d="M308 334C276.52 334 251 359.52 251 391V698H365V391C365 359.52 339.48 334 308 334Z" fill="#002B2A" fill-opacity="0.72"/>
<path d="M438 286C401.549 286 372 315.549 372 352V698H504V352C504 315.549 474.451 286 438 286Z" fill="#7F1D16" fill-opacity="0.88"/>
<rect x="402" y="372" width="72" height="326" rx="28" fill="#EFDAC7"/>
<rect x="274" y="430" width="68" height="268" rx="26" fill="#C7AF97"/>
<defs>
<linearGradient id="paint0_linear_1_2" x1="108" y1="108" x2="668" y2="852" gradientUnits="userSpaceOnUse">
<stop stop-color="#6D6054"/>
<stop offset="0.52" stop-color="#A0907E"/>
<stop offset="1" stop-color="#475958"/>
</linearGradient>
</defs>
</svg>
