<svg width="1440" height="900" viewBox="0 0 1440 900" fill="none" xmlns="http://www.w3.org/2000/svg">
<rect width="1440" height="900" fill="#E8DED1"/>
<rect x="42" y="42" width="1356" height="816" rx="28" fill="#D8C9B7"/>
<rect x="84" y="84" width="1272" height="732" rx="24" fill="#EDE4D8"/>
<rect x="84" y="84" width="822" height="732" fill="url(#paint0_linear_1_2)"/>
<rect x="906" y="84" width="450" height="732" fill="#D4C1AF"/>
<rect x="955" y="144" width="306" height="552" rx="18" fill="#F4ECE1"/>
<rect x="1008" y="198" width="36" height="420" rx="18" fill="#002B2A" fill-opacity="0.12"/>
<rect x="1082" y="198" width="96" height="420" rx="48" fill="#002B2A" fill-opacity="0.08"/>
<path d="M620 176H204C196.268 176 190 182.268 190 190V590C190 597.732 196.268 604 204 604H620C627.732 604 634 597.732 634 590V190C634 182.268 627.732 176 620 176Z" fill="#FCF9F3" fill-opacity="0.55"/>
<path d="M622 176H408V604H622C628.627 604 634 598.627 634 592V188C634 181.373 628.627 176 622 176Z" fill="#E1D0BF"/>
<path d="M214 548C268.5 485 309.5 429 334.5 380C366.5 317 404.5 257 472.5 257C560.5 257 583.5 339 612 412V604H214V548Z" fill="#002B2A" fill-opacity="0.10"/>
<path d="M498 246C469.2 246 446 269.2 446 298V604H554V298C554 269.2 530.8 246 502 246H498Z" fill="#7F1D16" fill-opacity="0.90"/>
<path d="M474 300C474 286.745 484.745 276 498 276H502C515.255 276 526 286.745 526 300V604H474V300Z" fill="#F0DCCA"/>
<rect x="464" y="360" width="72" height="244" rx="30" fill="#002B2A" fill-opacity="0.14"/>
<path d="M322 330C295.49 330 274 351.49 274 378V604H370V378C370 351.49 348.51 330 322 330Z" fill="#002B2A" fill-opacity="0.84"/>
<path d="M294 384C294 368.536 306.536 356 322 356C337.464 356 350 368.536 350 384V604H294V384Z" fill="#CBB39E"/>
<rect x="294" y="452" width="56" height="152" rx="24" fill="#7F1D16" fill-opacity="0.16"/>
<rect x="190" y="134" width="444" height="18" rx="9" fill="#FCF9F3" fill-opacity="0.42"/>
<rect x="955" y="726" width="306" height="32" rx="16" fill="#002B2A" fill-opacity="0.10"/>
<rect x="190" y="636" width="444" height="22" rx="11" fill="#FCF9F3" fill-opacity="0.42"/>
<defs>
<linearGradient id="paint0_linear_1_2" x1="84" y1="84" x2="906" y2="816" gradientUnits="userSpaceOnUse">
<stop stop-color="#6F5247"/>
<stop offset="0.43" stop-color="#A18370"/>
<stop offset="1" stop-color="#405452"/>
</linearGradient>
</defs>
</svg>
