<svg width="1200" height="960" viewBox="0 0 1200 960" fill="none" xmlns="http://www.w3.org/2000/svg">
<rect width="1200" height="960" fill="#EEE4D8"/>
<rect x="60" y="60" width="1080" height="840" rx="24" fill="#F8F2E9"/>
<rect x="104" y="104" width="992" height="752" rx="20" fill="#F1E7D9"/>
<rect x="146" y="146" width="394" height="668" rx="18" fill="#FCF9F3"/>
<rect x="572" y="146" width="482" height="260" rx="18" fill="url(#paint0_linear_1_2)"/>
<rect x="572" y="438" width="482" height="376" rx="18" fill="#E4D2C0"/>
<path d="M280 242C248.52 242 223 267.52 223 299V760H337V299C337 267.52 311.48 242 280 242Z" fill="#002B2A" fill-opacity="0.82"/>
<path d="M402 198C363.892 198 333 228.892 333 267V760H471V267C471 228.892 440.108 198 402 198Z" fill="#7F1D16"/>
<rect x="366" y="294" width="72" height="466" rx="30" fill="#EFD8C3"/>
<rect x="225" y="344" width="110" height="12" rx="6" fill="#7F1D16" fill-opacity="0.12"/>
<rect x="225" y="378" width="110" height="12" rx="6" fill="#002B2A" fill-opacity="0.12"/>
<rect x="610" y="188" width="404" height="18" rx="9" fill="#FCF9F3" fill-opacity="0.7"/>
<rect x="610" y="234" width="286" height="18" rx="9" fill="#FCF9F3" fill-opacity="0.36"/>
<rect x="622" y="478" width="132" height="294" rx="16" fill="#FCF9F3"/>
<rect x="772" y="478" width="132" height="294" rx="16" fill="#002B2A" fill-opacity="0.09"/>
<rect x="922" y="478" width="92" height="294" rx="16" fill="#7F1D16" fill-opacity="0.14"/>
<rect x="622" y="780" width="392" height="10" rx="5" fill="#002B2A" fill-opacity="0.12"/>
<defs>
<linearGradient id="paint0_linear_1_2" x1="572" y1="146" x2="1054" y2="406" gradientUnits="userSpaceOnUse">
<stop stop-color="#7A5948"/>
<stop offset="0.58" stop-color="#A88873"/>
<stop offset="1" stop-color="#435654"/>
</linearGradient>
</defs>
</svg>
