<svg width="800" height="1000" viewBox="0 0 800 1000" fill="none" xmlns="http://www.w3.org/2000/svg">
<rect width="800" height="1000" fill="#EEE4D8"/>
<rect x="42" y="42" width="716" height="916" rx="22" fill="#F7F0E6"/>
<rect x="90" y="90" width="620" height="820" rx="18" fill="url(#paint0_linear_1_2)"/>
<circle cx="392" cy="318" r="114" fill="#EAD8C7"/>
<path d="M196 910C196 732.164 340.164 588 518 588H582V910H196Z" fill="#002B2A" fill-opacity="0.16"/>
<path d="M252 702C252 600.38 334.38 518 436 518C537.62 518 620 600.38 620 702V910H252V702Z" fill="#7F1D16" fill-opacity="0.88"/>
<path d="M324 264C324 213.19 365.19 172 416 172C466.81 172 508 213.19 508 264V340H324V264Z" fill="#002B2A" fill-opacity="0.12"/>
<defs>
<linearGradient id="paint0_linear_1_2" x1="90" y1="90" x2="710" y2="910" gradientUnits="userSpaceOnUse">
<stop stop-color="#776051"/>
<stop offset="0.56" stop-color="#AB8F79"/>
<stop offset="1" stop-color="#445856"/>
</linearGradient>
</defs>
</svg>
