<svg width="800" height="1000" viewBox="0 0 800 1000" fill="none" xmlns="http://www.w3.org/2000/svg">
<rect width="800" height="1000" fill="#EEE4D8"/>
<rect x="42" y="42" width="716" height="916" rx="22" fill="#F7F0E6"/>
<rect x="90" y="90" width="620" height="820" rx="18" fill="url(#paint0_linear_1_2)"/>
<circle cx="404" cy="324" r="118" fill="#E8D7C5"/>
<path d="M282 690C282 594.492 359.492 517 455 517C550.508 517 628 594.492 628 690V910H282V690Z" fill="#002B2A" fill-opacity="0.82"/>
<path d="M210 910C210 748.638 340.638 618 502 618H590V910H210Z" fill="#7F1D16" fill-opacity="0.18"/>
<path d="M338 262C338 210.085 380.085 168 432 168C483.915 168 526 210.085 526 262V346H338V262Z" fill="#002B2A" fill-opacity="0.14"/>
<defs>
<linearGradient id="paint0_linear_1_2" x1="90" y1="90" x2="710" y2="910" gradientUnits="userSpaceOnUse">
<stop stop-color="#6F5A4D"/>
<stop offset="0.56" stop-color="#A98C76"/>
<stop offset="1" stop-color="#425755"/>
</linearGradient>
</defs>
</svg>
